<mxfile host="app.diagrams.net" agent="Mozilla/5.0 (Windows NT 10.0; Win64; x64) AppleWebKit/537.36 (KHTML, like Gecko) Chrome/139.0.0.0 Safari/537.36 Edg/139.0.0.0" version="28.1.1">
  <diagram name="Page-1" id="9f46799a-70d6-7492-0946-bef42562c5a5">
    <mxGraphModel dx="1418" dy="1606" grid="1" gridSize="10" guides="1" tooltips="1" connect="1" arrows="1" fold="1" page="1" pageScale="1" pageWidth="1100" pageHeight="850" background="none" math="0" shadow="0">
      <root>
        <mxCell id="0" />
        <mxCell id="1" parent="0" />
        <mxCell id="-ESmimKyKe0ZqDrPcYQ3-1" value="IIDDS-ALL-RequestPlan" style="shape=table;startSize=20;container=1;collapsible=1;childLayout=tableLayout;fixedRows=1;rowLines=0;fontStyle=1;align=center;resizeLast=1;html=1;fillColor=#cd1c69;labelBackgroundColor=none;strokeColor=#cd1c69;gradientColor=none;fontColor=#FFFFFF;swimlaneFillColor=#FFFFFF;" vertex="1" parent="1">
          <mxGeometry x="40" y="-840" width="240" height="260" as="geometry" />
        </mxCell>
        <mxCell id="-ESmimKyKe0ZqDrPcYQ3-2" value="" style="shape=tableRow;horizontal=0;startSize=0;swimlaneHead=0;swimlaneBody=0;fillColor=none;collapsible=0;dropTarget=0;points=[[0,0.5],[1,0.5]];portConstraint=eastwest;top=0;left=0;right=0;bottom=1;" vertex="1" parent="-ESmimKyKe0ZqDrPcYQ3-1">
          <mxGeometry y="20" width="240" height="20" as="geometry" />
        </mxCell>
        <mxCell id="-ESmimKyKe0ZqDrPcYQ3-3" value="ID (Unused)" style="shape=partialRectangle;connectable=0;fillColor=#808080;top=0;left=0;bottom=0;right=0;fontStyle=0;overflow=hidden;whiteSpace=wrap;html=1;opacity=50;align=left;spacingLeft=2;fillStyle=hatch;fontColor=#808080;" vertex="1" parent="-ESmimKyKe0ZqDrPcYQ3-2">
          <mxGeometry width="140" height="20" as="geometry">
            <mxRectangle width="140" height="20" as="alternateBounds" />
          </mxGeometry>
        </mxCell>
        <mxCell id="-ESmimKyKe0ZqDrPcYQ3-4" value="Num" style="shape=partialRectangle;connectable=0;fillColor=#808080;top=0;left=0;bottom=0;right=0;align=left;spacingLeft=2;fontStyle=0;overflow=hidden;whiteSpace=wrap;html=1;opacity=50;fillStyle=hatch;fontColor=#808080;" vertex="1" parent="-ESmimKyKe0ZqDrPcYQ3-2">
          <mxGeometry x="140" width="100" height="20" as="geometry">
            <mxRectangle width="100" height="20" as="alternateBounds" />
          </mxGeometry>
        </mxCell>
        <mxCell id="-ESmimKyKe0ZqDrPcYQ3-5" value="" style="shape=tableRow;horizontal=0;startSize=0;swimlaneHead=0;swimlaneBody=0;fillColor=none;collapsible=0;dropTarget=0;points=[[0,0.5],[1,0.5]];portConstraint=eastwest;top=0;left=0;right=0;bottom=0;" vertex="1" parent="-ESmimKyKe0ZqDrPcYQ3-1">
          <mxGeometry y="40" width="240" height="20" as="geometry" />
        </mxCell>
        <mxCell id="-ESmimKyKe0ZqDrPcYQ3-6" value="RequestID (FK)" style="shape=partialRectangle;connectable=0;fillColor=none;top=0;left=0;bottom=0;right=0;editable=1;overflow=hidden;whiteSpace=wrap;html=1;opacity=50;align=left;spacingLeft=2;fontStyle=1" vertex="1" parent="-ESmimKyKe0ZqDrPcYQ3-5">
          <mxGeometry width="140" height="20" as="geometry">
            <mxRectangle width="140" height="20" as="alternateBounds" />
          </mxGeometry>
        </mxCell>
        <mxCell id="-ESmimKyKe0ZqDrPcYQ3-7" value="Title" style="shape=partialRectangle;connectable=0;fillColor=none;top=0;left=0;bottom=0;right=0;align=left;spacingLeft=2;overflow=hidden;whiteSpace=wrap;html=1;opacity=50;fontStyle=1" vertex="1" parent="-ESmimKyKe0ZqDrPcYQ3-5">
          <mxGeometry x="140" width="100" height="20" as="geometry">
            <mxRectangle width="100" height="20" as="alternateBounds" />
          </mxGeometry>
        </mxCell>
        <mxCell id="-ESmimKyKe0ZqDrPcYQ3-8" style="shape=tableRow;horizontal=0;startSize=0;swimlaneHead=0;swimlaneBody=0;fillColor=none;collapsible=0;dropTarget=0;points=[[0,0.5],[1,0.5]];portConstraint=eastwest;top=0;left=0;right=0;bottom=0;" vertex="1" parent="-ESmimKyKe0ZqDrPcYQ3-1">
          <mxGeometry y="60" width="240" height="20" as="geometry" />
        </mxCell>
        <mxCell id="-ESmimKyKe0ZqDrPcYQ3-9" value="ExpectedStartDate" style="shape=partialRectangle;connectable=0;fillColor=none;top=0;left=0;bottom=0;right=0;editable=1;overflow=hidden;whiteSpace=wrap;html=1;opacity=50;align=left;spacingLeft=2;" vertex="1" parent="-ESmimKyKe0ZqDrPcYQ3-8">
          <mxGeometry width="140" height="20" as="geometry">
            <mxRectangle width="140" height="20" as="alternateBounds" />
          </mxGeometry>
        </mxCell>
        <mxCell id="-ESmimKyKe0ZqDrPcYQ3-10" value="Date" style="shape=partialRectangle;connectable=0;fillColor=none;top=0;left=0;bottom=0;right=0;align=left;spacingLeft=2;overflow=hidden;whiteSpace=wrap;html=1;opacity=50;" vertex="1" parent="-ESmimKyKe0ZqDrPcYQ3-8">
          <mxGeometry x="140" width="100" height="20" as="geometry">
            <mxRectangle width="100" height="20" as="alternateBounds" />
          </mxGeometry>
        </mxCell>
        <mxCell id="-ESmimKyKe0ZqDrPcYQ3-11" style="shape=tableRow;horizontal=0;startSize=0;swimlaneHead=0;swimlaneBody=0;fillColor=none;collapsible=0;dropTarget=0;points=[[0,0.5],[1,0.5]];portConstraint=eastwest;top=0;left=0;right=0;bottom=0;" vertex="1" parent="-ESmimKyKe0ZqDrPcYQ3-1">
          <mxGeometry y="80" width="240" height="20" as="geometry" />
        </mxCell>
        <mxCell id="-ESmimKyKe0ZqDrPcYQ3-12" value="AlphaDate" style="shape=partialRectangle;connectable=0;fillColor=none;top=0;left=0;bottom=0;right=0;editable=1;overflow=hidden;whiteSpace=wrap;html=1;opacity=50;align=left;spacingLeft=2;" vertex="1" parent="-ESmimKyKe0ZqDrPcYQ3-11">
          <mxGeometry width="140" height="20" as="geometry">
            <mxRectangle width="140" height="20" as="alternateBounds" />
          </mxGeometry>
        </mxCell>
        <mxCell id="-ESmimKyKe0ZqDrPcYQ3-13" value="Date" style="shape=partialRectangle;connectable=0;fillColor=none;top=0;left=0;bottom=0;right=0;align=left;spacingLeft=2;overflow=hidden;whiteSpace=wrap;html=1;opacity=50;" vertex="1" parent="-ESmimKyKe0ZqDrPcYQ3-11">
          <mxGeometry x="140" width="100" height="20" as="geometry">
            <mxRectangle width="100" height="20" as="alternateBounds" />
          </mxGeometry>
        </mxCell>
        <mxCell id="-ESmimKyKe0ZqDrPcYQ3-14" style="shape=tableRow;horizontal=0;startSize=0;swimlaneHead=0;swimlaneBody=0;fillColor=none;collapsible=0;dropTarget=0;points=[[0,0.5],[1,0.5]];portConstraint=eastwest;top=0;left=0;right=0;bottom=0;" vertex="1" parent="-ESmimKyKe0ZqDrPcYQ3-1">
          <mxGeometry y="100" width="240" height="20" as="geometry" />
        </mxCell>
        <mxCell id="-ESmimKyKe0ZqDrPcYQ3-15" value="AlphaQADate" style="shape=partialRectangle;connectable=0;fillColor=none;top=0;left=0;bottom=0;right=0;editable=1;overflow=hidden;whiteSpace=wrap;html=1;opacity=50;align=left;spacingLeft=2;" vertex="1" parent="-ESmimKyKe0ZqDrPcYQ3-14">
          <mxGeometry width="140" height="20" as="geometry">
            <mxRectangle width="140" height="20" as="alternateBounds" />
          </mxGeometry>
        </mxCell>
        <mxCell id="-ESmimKyKe0ZqDrPcYQ3-16" value="Date" style="shape=partialRectangle;connectable=0;fillColor=none;top=0;left=0;bottom=0;right=0;align=left;spacingLeft=2;overflow=hidden;whiteSpace=wrap;html=1;opacity=50;" vertex="1" parent="-ESmimKyKe0ZqDrPcYQ3-14">
          <mxGeometry x="140" width="100" height="20" as="geometry">
            <mxRectangle width="100" height="20" as="alternateBounds" />
          </mxGeometry>
        </mxCell>
        <mxCell id="-ESmimKyKe0ZqDrPcYQ3-17" style="shape=tableRow;horizontal=0;startSize=0;swimlaneHead=0;swimlaneBody=0;fillColor=none;collapsible=0;dropTarget=0;points=[[0,0.5],[1,0.5]];portConstraint=eastwest;top=0;left=0;right=0;bottom=0;" vertex="1" parent="-ESmimKyKe0ZqDrPcYQ3-1">
          <mxGeometry y="120" width="240" height="20" as="geometry" />
        </mxCell>
        <mxCell id="-ESmimKyKe0ZqDrPcYQ3-18" value="BetaDate" style="shape=partialRectangle;connectable=0;fillColor=none;top=0;left=0;bottom=0;right=0;editable=1;overflow=hidden;whiteSpace=wrap;html=1;opacity=50;align=left;spacingLeft=2;" vertex="1" parent="-ESmimKyKe0ZqDrPcYQ3-17">
          <mxGeometry width="140" height="20" as="geometry">
            <mxRectangle width="140" height="20" as="alternateBounds" />
          </mxGeometry>
        </mxCell>
        <mxCell id="-ESmimKyKe0ZqDrPcYQ3-19" value="Date" style="shape=partialRectangle;connectable=0;fillColor=none;top=0;left=0;bottom=0;right=0;align=left;spacingLeft=2;overflow=hidden;whiteSpace=wrap;html=1;opacity=50;" vertex="1" parent="-ESmimKyKe0ZqDrPcYQ3-17">
          <mxGeometry x="140" width="100" height="20" as="geometry">
            <mxRectangle width="100" height="20" as="alternateBounds" />
          </mxGeometry>
        </mxCell>
        <mxCell id="-ESmimKyKe0ZqDrPcYQ3-20" style="shape=tableRow;horizontal=0;startSize=0;swimlaneHead=0;swimlaneBody=0;fillColor=none;collapsible=0;dropTarget=0;points=[[0,0.5],[1,0.5]];portConstraint=eastwest;top=0;left=0;right=0;bottom=0;" vertex="1" parent="-ESmimKyKe0ZqDrPcYQ3-1">
          <mxGeometry y="140" width="240" height="20" as="geometry" />
        </mxCell>
        <mxCell id="-ESmimKyKe0ZqDrPcYQ3-21" value="BetaQADate" style="shape=partialRectangle;connectable=0;fillColor=none;top=0;left=0;bottom=0;right=0;editable=1;overflow=hidden;whiteSpace=wrap;html=1;opacity=50;align=left;spacingLeft=2;" vertex="1" parent="-ESmimKyKe0ZqDrPcYQ3-20">
          <mxGeometry width="140" height="20" as="geometry">
            <mxRectangle width="140" height="20" as="alternateBounds" />
          </mxGeometry>
        </mxCell>
        <mxCell id="-ESmimKyKe0ZqDrPcYQ3-22" value="Date" style="shape=partialRectangle;connectable=0;fillColor=none;top=0;left=0;bottom=0;right=0;align=left;spacingLeft=2;overflow=hidden;whiteSpace=wrap;html=1;opacity=50;" vertex="1" parent="-ESmimKyKe0ZqDrPcYQ3-20">
          <mxGeometry x="140" width="100" height="20" as="geometry">
            <mxRectangle width="100" height="20" as="alternateBounds" />
          </mxGeometry>
        </mxCell>
        <mxCell id="-ESmimKyKe0ZqDrPcYQ3-23" style="shape=tableRow;horizontal=0;startSize=0;swimlaneHead=0;swimlaneBody=0;fillColor=none;collapsible=0;dropTarget=0;points=[[0,0.5],[1,0.5]];portConstraint=eastwest;top=0;left=0;right=0;bottom=0;" vertex="1" parent="-ESmimKyKe0ZqDrPcYQ3-1">
          <mxGeometry y="160" width="240" height="20" as="geometry" />
        </mxCell>
        <mxCell id="-ESmimKyKe0ZqDrPcYQ3-24" value="GammaDate" style="shape=partialRectangle;connectable=0;fillColor=none;top=0;left=0;bottom=0;right=0;editable=1;overflow=hidden;whiteSpace=wrap;html=1;opacity=50;align=left;spacingLeft=2;" vertex="1" parent="-ESmimKyKe0ZqDrPcYQ3-23">
          <mxGeometry width="140" height="20" as="geometry">
            <mxRectangle width="140" height="20" as="alternateBounds" />
          </mxGeometry>
        </mxCell>
        <mxCell id="-ESmimKyKe0ZqDrPcYQ3-25" value="Date" style="shape=partialRectangle;connectable=0;fillColor=none;top=0;left=0;bottom=0;right=0;align=left;spacingLeft=2;overflow=hidden;whiteSpace=wrap;html=1;opacity=50;" vertex="1" parent="-ESmimKyKe0ZqDrPcYQ3-23">
          <mxGeometry x="140" width="100" height="20" as="geometry">
            <mxRectangle width="100" height="20" as="alternateBounds" />
          </mxGeometry>
        </mxCell>
        <mxCell id="-ESmimKyKe0ZqDrPcYQ3-26" style="shape=tableRow;horizontal=0;startSize=0;swimlaneHead=0;swimlaneBody=0;fillColor=none;collapsible=0;dropTarget=0;points=[[0,0.5],[1,0.5]];portConstraint=eastwest;top=0;left=0;right=0;bottom=0;" vertex="1" parent="-ESmimKyKe0ZqDrPcYQ3-1">
          <mxGeometry y="180" width="240" height="20" as="geometry" />
        </mxCell>
        <mxCell id="-ESmimKyKe0ZqDrPcYQ3-27" value="GammaQADate" style="shape=partialRectangle;connectable=0;fillColor=none;top=0;left=0;bottom=0;right=0;editable=1;overflow=hidden;whiteSpace=wrap;html=1;opacity=50;align=left;spacingLeft=2;" vertex="1" parent="-ESmimKyKe0ZqDrPcYQ3-26">
          <mxGeometry width="140" height="20" as="geometry">
            <mxRectangle width="140" height="20" as="alternateBounds" />
          </mxGeometry>
        </mxCell>
        <mxCell id="-ESmimKyKe0ZqDrPcYQ3-28" value="Date" style="shape=partialRectangle;connectable=0;fillColor=none;top=0;left=0;bottom=0;right=0;align=left;spacingLeft=2;overflow=hidden;whiteSpace=wrap;html=1;opacity=50;" vertex="1" parent="-ESmimKyKe0ZqDrPcYQ3-26">
          <mxGeometry x="140" width="100" height="20" as="geometry">
            <mxRectangle width="100" height="20" as="alternateBounds" />
          </mxGeometry>
        </mxCell>
        <mxCell id="-ESmimKyKe0ZqDrPcYQ3-29" style="shape=tableRow;horizontal=0;startSize=0;swimlaneHead=0;swimlaneBody=0;fillColor=none;collapsible=0;dropTarget=0;points=[[0,0.5],[1,0.5]];portConstraint=eastwest;top=0;left=0;right=0;bottom=0;" vertex="1" parent="-ESmimKyKe0ZqDrPcYQ3-1">
          <mxGeometry y="200" width="240" height="20" as="geometry" />
        </mxCell>
        <mxCell id="-ESmimKyKe0ZqDrPcYQ3-30" value="FinalDueDate" style="shape=partialRectangle;connectable=0;fillColor=none;top=0;left=0;bottom=0;right=0;editable=1;overflow=hidden;whiteSpace=wrap;html=1;opacity=50;align=left;spacingLeft=2;" vertex="1" parent="-ESmimKyKe0ZqDrPcYQ3-29">
          <mxGeometry width="140" height="20" as="geometry">
            <mxRectangle width="140" height="20" as="alternateBounds" />
          </mxGeometry>
        </mxCell>
        <mxCell id="-ESmimKyKe0ZqDrPcYQ3-31" value="Date" style="shape=partialRectangle;connectable=0;fillColor=none;top=0;left=0;bottom=0;right=0;align=left;spacingLeft=2;overflow=hidden;whiteSpace=wrap;html=1;opacity=50;" vertex="1" parent="-ESmimKyKe0ZqDrPcYQ3-29">
          <mxGeometry x="140" width="100" height="20" as="geometry">
            <mxRectangle width="100" height="20" as="alternateBounds" />
          </mxGeometry>
        </mxCell>
        <mxCell id="-ESmimKyKe0ZqDrPcYQ3-32" style="shape=tableRow;horizontal=0;startSize=0;swimlaneHead=0;swimlaneBody=0;fillColor=none;collapsible=0;dropTarget=0;points=[[0,0.5],[1,0.5]];portConstraint=eastwest;top=0;left=0;right=0;bottom=0;" vertex="1" parent="-ESmimKyKe0ZqDrPcYQ3-1">
          <mxGeometry y="220" width="240" height="20" as="geometry" />
        </mxCell>
        <mxCell id="-ESmimKyKe0ZqDrPcYQ3-33" value="AdjustedDueDate" style="shape=partialRectangle;connectable=0;fillColor=none;top=0;left=0;bottom=0;right=0;editable=1;overflow=hidden;whiteSpace=wrap;html=1;opacity=50;align=left;spacingLeft=2;" vertex="1" parent="-ESmimKyKe0ZqDrPcYQ3-32">
          <mxGeometry width="140" height="20" as="geometry">
            <mxRectangle width="140" height="20" as="alternateBounds" />
          </mxGeometry>
        </mxCell>
        <mxCell id="-ESmimKyKe0ZqDrPcYQ3-34" value="Date" style="shape=partialRectangle;connectable=0;fillColor=none;top=0;left=0;bottom=0;right=0;align=left;spacingLeft=2;overflow=hidden;whiteSpace=wrap;html=1;opacity=50;" vertex="1" parent="-ESmimKyKe0ZqDrPcYQ3-32">
          <mxGeometry x="140" width="100" height="20" as="geometry">
            <mxRectangle width="100" height="20" as="alternateBounds" />
          </mxGeometry>
        </mxCell>
        <mxCell id="-ESmimKyKe0ZqDrPcYQ3-35" style="shape=tableRow;horizontal=0;startSize=0;swimlaneHead=0;swimlaneBody=0;fillColor=none;collapsible=0;dropTarget=0;points=[[0,0.5],[1,0.5]];portConstraint=eastwest;top=0;left=0;right=0;bottom=0;" vertex="1" parent="-ESmimKyKe0ZqDrPcYQ3-1">
          <mxGeometry y="240" width="240" height="20" as="geometry" />
        </mxCell>
        <mxCell id="-ESmimKyKe0ZqDrPcYQ3-36" value="Attachments" style="shape=partialRectangle;connectable=0;fillColor=none;top=0;left=0;bottom=0;right=0;editable=1;overflow=hidden;whiteSpace=wrap;html=1;opacity=50;align=left;spacingLeft=2;" vertex="1" parent="-ESmimKyKe0ZqDrPcYQ3-35">
          <mxGeometry width="140" height="20" as="geometry">
            <mxRectangle width="140" height="20" as="alternateBounds" />
          </mxGeometry>
        </mxCell>
        <mxCell id="-ESmimKyKe0ZqDrPcYQ3-37" value="Built-in" style="shape=partialRectangle;connectable=0;fillColor=none;top=0;left=0;bottom=0;right=0;align=left;spacingLeft=2;overflow=hidden;whiteSpace=wrap;html=1;opacity=50;" vertex="1" parent="-ESmimKyKe0ZqDrPcYQ3-35">
          <mxGeometry x="140" width="100" height="20" as="geometry">
            <mxRectangle width="100" height="20" as="alternateBounds" />
          </mxGeometry>
        </mxCell>
      </root>
    </mxGraphModel>
  </diagram>
</mxfile>
